<svg xmlns="http://www.w3.org/2000/svg" width="1800" height="520" viewBox="0 0 1800 520">
  <rect width="1800" height="520" fill="#0d1117"/>
  <rect x="54.0" y="181.0" width="32.1" height="32.1" rx="2.5" fill="#4f78a8" opacity="0.95" /><rect x="44.0" y="171.0" width="32.1" height="32.1" rx="2.5" fill="#78aee8" stroke="#0d1117" stroke-width="2.4" /><rect x="78.0" y="181.0" width="32.1" height="32.1" rx="2.5" fill="#4f78a8" opacity="0.95" /><rect x="68.0" y="171.0" width="32.1" height="32.1" rx="2.5" fill="#78aee8" stroke="#0d1117" stroke-width="2.4" /><rect x="102.0" y="181.0" width="32.1" height="32.1" rx="2.5" fill="#4f78a8" opacity="0.95" /><rect x="92.0" y="171.0" width="32.1" height="32.1" rx="2.5" fill="#78aee8" stroke="#0d1117" stroke-width="2.4" /><rect x="126.0" y="181.0" width="32.1" height="32.1" rx="2.5" fill="#4f78a8" opacity="0.95" /><rect x="116.0" y="171.0" width="32.1" height="32.1" rx="2.5" fill="#78aee8" stroke="#0d1117" stroke-width="2.4" /><rect x="54.0" y="205.0" width="32.1" height="32.1" rx="2.5" fill="#4f78a8" opacity="0.95" /><rect x="44.0" y="195.0" width="32.1" height="32.1" rx="2.5" fill="#78aee8" stroke="#0d1117" stroke-width="2.4" /><rect x="150.0" y="205.0" width="32.1" height="32.1" rx="2.5" fill="#4f78a8" opacity="0.95" /><rect x="140.0" y="195.0" width="32.1" height="32.1" rx="2.5" fill="#78aee8" stroke="#0d1117" stroke-width="2.4" /><rect x="54.0" y="229.0" width="32.1" height="32.1" rx="2.5" fill="#4f78a8" opacity="0.95" /><rect x="44.0" y="219.0" width="32.1" height="32.1" rx="2.5" fill="#78aee8" stroke="#0d1117" stroke-width="2.4" /><rect x="150.0" y="229.0" width="32.1" height="32.1" rx="2.5" fill="#4f78a8" opacity="0.95" /><rect x="140.0" y="219.0" width="32.1" height="32.1" rx="2.5" fill="#78aee8" stroke="#0d1117" stroke-width="2.4" /><rect x="54.0" y="253.0" width="32.1" height="32.1" rx="2.5" fill="#4f78a8" opacity="0.95" /><rect x="44.0" y="243.0" width="32.1" height="32.1" rx="2.5" fill="#78aee8" stroke="#0d1117" stroke-width="2.4" /><rect x="78.0" y="253.0" width="32.1" height="32.1" rx="2.5" fill="#4f78a8" opacity="0.95" /><rect x="68.0" y="243.0" width="32.1" height="32.1" rx="2.5" fill="#78aee8" stroke="#0d1117" stroke-width="2.4" /><rect x="102.0" y="253.0" width="32.1" height="32.1" rx="2.5" fill="#4f78a8" opacity="0.95" /><rect x="92.0" y="243.0" width="32.1" height="32.1" rx="2.5" fill="#78aee8" stroke="#0d1117" stroke-width="2.4" /><rect x="126.0" y="253.0" width="32.1" height="32.1" rx="2.5" fill="#4f78a8" opacity="0.95" /><rect x="116.0" y="243.0" width="32.1" height="32.1" rx="2.5" fill="#78aee8" stroke="#0d1117" stroke-width="2.4" /><rect x="54.0" y="277.0" width="32.1" height="32.1" rx="2.5" fill="#4f78a8" opacity="0.95" /><rect x="44.0" y="267.0" width="32.1" height="32.1" rx="2.5" fill="#78aee8" stroke="#0d1117" stroke-width="2.4" /><rect x="150.0" y="277.0" width="32.1" height="32.1" rx="2.5" fill="#4f78a8" opacity="0.95" /><rect x="140.0" y="267.0" width="32.1" height="32.1" rx="2.5" fill="#78aee8" stroke="#0d1117" stroke-width="2.4" /><rect x="54.0" y="301.0" width="32.1" height="32.1" rx="2.5" fill="#4f78a8" opacity="0.95" /><rect x="44.0" y="291.0" width="32.1" height="32.1" rx="2.5" fill="#78aee8" stroke="#0d1117" stroke-width="2.4" /><rect x="150.0" y="301.0" width="32.1" height="32.1" rx="2.5" fill="#4f78a8" opacity="0.95" /><rect x="140.0" y="291.0" width="32.1" height="32.1" rx="2.5" fill="#78aee8" stroke="#0d1117" stroke-width="2.4" /><rect x="54.0" y="325.0" width="32.1" height="32.1" rx="2.5" fill="#4f78a8" opacity="0.95" /><rect x="44.0" y="315.0" width="32.1" height="32.1" rx="2.5" fill="#78aee8" stroke="#0d1117" stroke-width="2.4" /><rect x="78.0" y="325.0" width="32.1" height="32.1" rx="2.5" fill="#4f78a8" opacity="0.95" /><rect x="68.0" y="315.0" width="32.1" height="32.1" rx="2.5" fill="#78aee8" stroke="#0d1117" stroke-width="2.4" /><rect x="102.0" y="325.0" width="32.1" height="32.1" rx="2.5" fill="#4f78a8" opacity="0.95" /><rect x="92.0" y="315.0" width="32.1" height="32.1" rx="2.5" fill="#78aee8" stroke="#0d1117" stroke-width="2.4" /><rect x="126.0" y="325.0" width="32.1" height="32.1" rx="2.5" fill="#4f78a8" opacity="0.95" /><rect x="116.0" y="315.0" width="32.1" height="32.1" rx="2.5" fill="#78aee8" stroke="#0d1117" stroke-width="2.4" /><rect x="200.0" y="181.0" width="32.1" height="32.1" rx="2.5" fill="#4f78a8" opacity="0.95" /><rect x="190.0" y="171.0" width="32.1" height="32.1" rx="2.5" fill="#78aee8" stroke="#0d1117" stroke-width="2.4" /><rect x="296.0" y="181.0" width="32.1" height="32.1" rx="2.5" fill="#4f78a8" opacity="0.95" /><rect x="286.0" y="171.0" width="32.1" height="32.1" rx="2.5" fill="#78aee8" stroke="#0d1117" stroke-width="2.4" /><rect x="200.0" y="205.0" width="32.1" height="32.1" rx="2.5" fill="#4f78a8" opacity="0.95" /><rect x="190.0" y="195.0" width="32.1" height="32.1" rx="2.5" fill="#78aee8" stroke="#0d1117" stroke-width="2.4" /><rect x="296.0" y="205.0" width="32.1" height="32.1" rx="2.5" fill="#4f78a8" opacity="0.95" /><rect x="286.0" y="195.0" width="32.1" height="32.1" rx="2.5" fill="#78aee8" stroke="#0d1117" stroke-width="2.4" /><rect x="200.0" y="229.0" width="32.1" height="32.1" rx="2.5" fill="#4f78a8" opacity="0.95" /><rect x="190.0" y="219.0" width="32.1" height="32.1" rx="2.5" fill="#78aee8" stroke="#0d1117" stroke-width="2.4" /><rect x="296.0" y="229.0" width="32.1" height="32.1" rx="2.5" fill="#4f78a8" opacity="0.95" /><rect x="286.0" y="219.0" width="32.1" height="32.1" rx="2.5" fill="#78aee8" stroke="#0d1117" stroke-width="2.4" /><rect x="200.0" y="253.0" width="32.1" height="32.1" rx="2.5" fill="#4f78a8" opacity="0.95" /><rect x="190.0" y="243.0" width="32.1" height="32.1" rx="2.5" fill="#78aee8" stroke="#0d1117" stroke-width="2.4" /><rect x="296.0" y="253.0" width="32.1" height="32.1" rx="2.5" fill="#4f78a8" opacity="0.95" /><rect x="286.0" y="243.0" width="32.1" height="32.1" rx="2.5" fill="#78aee8" stroke="#0d1117" stroke-width="2.4" /><rect x="200.0" y="277.0" width="32.1" height="32.1" rx="2.5" fill="#4f78a8" opacity="0.95" /><rect x="190.0" y="267.0" width="32.1" height="32.1" rx="2.5" fill="#78aee8" stroke="#0d1117" stroke-width="2.4" /><rect x="296.0" y="277.0" width="32.1" height="32.1" rx="2.5" fill="#4f78a8" opacity="0.95" /><rect x="286.0" y="267.0" width="32.1" height="32.1" rx="2.5" fill="#78aee8" stroke="#0d1117" stroke-width="2.4" /><rect x="200.0" y="301.0" width="32.1" height="32.1" rx="2.5" fill="#4f78a8" opacity="0.95" /><rect x="190.0" y="291.0" width="32.1" height="32.1" rx="2.5" fill="#78aee8" stroke="#0d1117" stroke-width="2.4" /><rect x="296.0" y="301.0" width="32.1" height="32.1" rx="2.5" fill="#4f78a8" opacity="0.95" /><rect x="286.0" y="291.0" width="32.1" height="32.1" rx="2.5" fill="#78aee8" stroke="#0d1117" stroke-width="2.4" /><rect x="224.0" y="325.0" width="32.1" height="32.1" rx="2.5" fill="#4f78a8" opacity="0.95" /><rect x="214.0" y="315.0" width="32.1" height="32.1" rx="2.5" fill="#78aee8" stroke="#0d1117" stroke-width="2.4" /><rect x="248.0" y="325.0" width="32.1" height="32.1" rx="2.5" fill="#4f78a8" opacity="0.95" /><rect x="238.0" y="315.0" width="32.1" height="32.1" rx="2.5" fill="#78aee8" stroke="#0d1117" stroke-width="2.4" /><rect x="272.0" y="325.0" width="32.1" height="32.1" rx="2.5" fill="#4f78a8" opacity="0.95" /><rect x="262.0" y="315.0" width="32.1" height="32.1" rx="2.5" fill="#78aee8" stroke="#0d1117" stroke-width="2.4" /><rect x="346.0" y="181.0" width="32.1" height="32.1" rx="2.5" fill="#4f78a8" opacity="0.95" /><rect x="336.0" y="171.0" width="32.1" height="32.1" rx="2.5" fill="#78aee8" stroke="#0d1117" stroke-width="2.4" /><rect x="370.0" y="181.0" width="32.1" height="32.1" rx="2.5" fill="#4f78a8" opacity="0.95" /><rect x="360.0" y="171.0" width="32.1" height="32.1" rx="2.5" fill="#78aee8" stroke="#0d1117" stroke-width="2.4" /><rect x="394.0" y="181.0" width="32.1" height="32.1" rx="2.5" fill="#4f78a8" opacity="0.95" /><rect x="384.0" y="171.0" width="32.1" height="32.1" rx="2.5" fill="#78aee8" stroke="#0d1117" stroke-width="2.4" /><rect x="418.0" y="181.0" width="32.1" height="32.1" rx="2.5" fill="#4f78a8" opacity="0.95" /><rect x="408.0" y="171.0" width="32.1" height="32.1" rx="2.5" fill="#78aee8" stroke="#0d1117" stroke-width="2.4" /><rect x="442.0" y="181.0" width="32.1" height="32.1" rx="2.5" fill="#4f78a8" opacity="0.95" /><rect x="432.0" y="171.0" width="32.1" height="32.1" rx="2.5" fill="#78aee8" stroke="#0d1117" stroke-width="2.4" /><rect x="394.0" y="205.0" width="32.1" height="32.1" rx="2.5" fill="#4f78a8" opacity="0.95" /><rect x="384.0" y="195.0" width="32.1" height="32.1" rx="2.5" fill="#78aee8" stroke="#0d1117" stroke-width="2.4" /><rect x="394.0" y="229.0" width="32.1" height="32.1" rx="2.5" fill="#4f78a8" opacity="0.95" /><rect x="384.0" y="219.0" width="32.1" height="32.1" rx="2.5" fill="#78aee8" stroke="#0d1117" stroke-width="2.4" /><rect x="394.0" y="253.0" width="32.1" height="32.1" rx="2.5" fill="#4f78a8" opacity="0.95" /><rect x="384.0" y="243.0" width="32.1" height="32.1" rx="2.5" fill="#78aee8" stroke="#0d1117" stroke-width="2.4" /><rect x="394.0" y="277.0" width="32.1" height="32.1" rx="2.5" fill="#4f78a8" opacity="0.95" /><rect x="384.0" y="267.0" width="32.1" height="32.1" rx="2.5" fill="#78aee8" stroke="#0d1117" stroke-width="2.4" /><rect x="394.0" y="301.0" width="32.1" height="32.1" rx="2.5" fill="#4f78a8" opacity="0.95" /><rect x="384.0" y="291.0" width="32.1" height="32.1" rx="2.5" fill="#78aee8" stroke="#0d1117" stroke-width="2.4" /><rect x="346.0" y="325.0" width="32.1" height="32.1" rx="2.5" fill="#4f78a8" opacity="0.95" /><rect x="336.0" y="315.0" width="32.1" height="32.1" rx="2.5" fill="#78aee8" stroke="#0d1117" stroke-width="2.4" /><rect x="370.0" y="325.0" width="32.1" height="32.1" rx="2.5" fill="#4f78a8" opacity="0.95" /><rect x="360.0" y="315.0" width="32.1" height="32.1" rx="2.5" fill="#78aee8" stroke="#0d1117" stroke-width="2.4" /><rect x="394.0" y="325.0" width="32.1" height="32.1" rx="2.5" fill="#4f78a8" opacity="0.95" /><rect x="384.0" y="315.0" width="32.1" height="32.1" rx="2.5" fill="#78aee8" stroke="#0d1117" stroke-width="2.4" /><rect x="418.0" y="325.0" width="32.1" height="32.1" rx="2.5" fill="#4f78a8" opacity="0.95" /><rect x="408.0" y="315.0" width="32.1" height="32.1" rx="2.5" fill="#78aee8" stroke="#0d1117" stroke-width="2.4" /><rect x="442.0" y="325.0" width="32.1" height="32.1" rx="2.5" fill="#4f78a8" opacity="0.95" /><rect x="432.0" y="315.0" width="32.1" height="32.1" rx="2.5" fill="#78aee8" stroke="#0d1117" stroke-width="2.4" /><rect x="492.0" y="181.0" width="32.1" height="32.1" rx="2.5" fill="#4f78a8" opacity="0.95" /><rect x="482.0" y="171.0" width="32.1" height="32.1" rx="2.5" fill="#78aee8" stroke="#0d1117" stroke-width="2.4" /><rect x="492.0" y="205.0" width="32.1" height="32.1" rx="2.5" fill="#4f78a8" opacity="0.95" /><rect x="482.0" y="195.0" width="32.1" height="32.1" rx="2.5" fill="#78aee8" stroke="#0d1117" stroke-width="2.4" /><rect x="492.0" y="229.0" width="32.1" height="32.1" rx="2.5" fill="#4f78a8" opacity="0.95" /><rect x="482.0" y="219.0" width="32.1" height="32.1" rx="2.5" fill="#78aee8" stroke="#0d1117" stroke-width="2.4" /><rect x="492.0" y="253.0" width="32.1" height="32.1" rx="2.5" fill="#4f78a8" opacity="0.95" /><rect x="482.0" y="243.0" width="32.1" height="32.1" rx="2.5" fill="#78aee8" stroke="#0d1117" stroke-width="2.4" /><rect x="492.0" y="277.0" width="32.1" height="32.1" rx="2.5" fill="#4f78a8" opacity="0.95" /><rect x="482.0" y="267.0" width="32.1" height="32.1" rx="2.5" fill="#78aee8" stroke="#0d1117" stroke-width="2.4" /><rect x="492.0" y="301.0" width="32.1" height="32.1" rx="2.5" fill="#4f78a8" opacity="0.95" /><rect x="482.0" y="291.0" width="32.1" height="32.1" rx="2.5" fill="#78aee8" stroke="#0d1117" stroke-width="2.4" /><rect x="492.0" y="325.0" width="32.1" height="32.1" rx="2.5" fill="#4f78a8" opacity="0.95" /><rect x="482.0" y="315.0" width="32.1" height="32.1" rx="2.5" fill="#78aee8" stroke="#0d1117" stroke-width="2.4" /><rect x="516.0" y="325.0" width="32.1" height="32.1" rx="2.5" fill="#4f78a8" opacity="0.95" /><rect x="506.0" y="315.0" width="32.1" height="32.1" rx="2.5" fill="#78aee8" stroke="#0d1117" stroke-width="2.4" /><rect x="540.0" y="325.0" width="32.1" height="32.1" rx="2.5" fill="#4f78a8" opacity="0.95" /><rect x="530.0" y="315.0" width="32.1" height="32.1" rx="2.5" fill="#78aee8" stroke="#0d1117" stroke-width="2.4" /><rect x="564.0" y="325.0" width="32.1" height="32.1" rx="2.5" fill="#4f78a8" opacity="0.95" /><rect x="554.0" y="315.0" width="32.1" height="32.1" rx="2.5" fill="#78aee8" stroke="#0d1117" stroke-width="2.4" /><rect x="588.0" y="325.0" width="32.1" height="32.1" rx="2.5" fill="#4f78a8" opacity="0.95" /><rect x="578.0" y="315.0" width="32.1" height="32.1" rx="2.5" fill="#78aee8" stroke="#0d1117" stroke-width="2.4" /><rect x="638.0" y="181.0" width="32.1" height="32.1" rx="2.5" fill="#4f78a8" opacity="0.95" /><rect x="628.0" y="171.0" width="32.1" height="32.1" rx="2.5" fill="#78aee8" stroke="#0d1117" stroke-width="2.4" /><rect x="662.0" y="181.0" width="32.1" height="32.1" rx="2.5" fill="#4f78a8" opacity="0.95" /><rect x="652.0" y="171.0" width="32.1" height="32.1" rx="2.5" fill="#78aee8" stroke="#0d1117" stroke-width="2.4" /><rect x="686.0" y="181.0" width="32.1" height="32.1" rx="2.5" fill="#4f78a8" opacity="0.95" /><rect x="676.0" y="171.0" width="32.1" height="32.1" rx="2.5" fill="#78aee8" stroke="#0d1117" stroke-width="2.4" /><rect x="710.0" y="181.0" width="32.1" height="32.1" rx="2.5" fill="#4f78a8" opacity="0.95" /><rect x="700.0" y="171.0" width="32.1" height="32.1" rx="2.5" fill="#78aee8" stroke="#0d1117" stroke-width="2.4" /><rect x="638.0" y="205.0" width="32.1" height="32.1" rx="2.5" fill="#4f78a8" opacity="0.95" /><rect x="628.0" y="195.0" width="32.1" height="32.1" rx="2.5" fill="#78aee8" stroke="#0d1117" stroke-width="2.4" /><rect x="734.0" y="205.0" width="32.1" height="32.1" rx="2.5" fill="#4f78a8" opacity="0.95" /><rect x="724.0" y="195.0" width="32.1" height="32.1" rx="2.5" fill="#78aee8" stroke="#0d1117" stroke-width="2.4" /><rect x="638.0" y="229.0" width="32.1" height="32.1" rx="2.5" fill="#4f78a8" opacity="0.95" /><rect x="628.0" y="219.0" width="32.1" height="32.1" rx="2.5" fill="#78aee8" stroke="#0d1117" stroke-width="2.4" /><rect x="734.0" y="229.0" width="32.1" height="32.1" rx="2.5" fill="#4f78a8" opacity="0.95" /><rect x="724.0" y="219.0" width="32.1" height="32.1" rx="2.5" fill="#78aee8" stroke="#0d1117" stroke-width="2.4" /><rect x="638.0" y="253.0" width="32.1" height="32.1" rx="2.5" fill="#4f78a8" opacity="0.95" /><rect x="628.0" y="243.0" width="32.1" height="32.1" rx="2.5" fill="#78aee8" stroke="#0d1117" stroke-width="2.4" /><rect x="734.0" y="253.0" width="32.1" height="32.1" rx="2.5" fill="#4f78a8" opacity="0.95" /><rect x="724.0" y="243.0" width="32.1" height="32.1" rx="2.5" fill="#78aee8" stroke="#0d1117" stroke-width="2.4" /><rect x="638.0" y="277.0" width="32.1" height="32.1" rx="2.5" fill="#4f78a8" opacity="0.95" /><rect x="628.0" y="267.0" width="32.1" height="32.1" rx="2.5" fill="#78aee8" stroke="#0d1117" stroke-width="2.4" /><rect x="734.0" y="277.0" width="32.1" height="32.1" rx="2.5" fill="#4f78a8" opacity="0.95" /><rect x="724.0" y="267.0" width="32.1" height="32.1" rx="2.5" fill="#78aee8" stroke="#0d1117" stroke-width="2.4" /><rect x="638.0" y="301.0" width="32.1" height="32.1" rx="2.5" fill="#4f78a8" opacity="0.95" /><rect x="628.0" y="291.0" width="32.1" height="32.1" rx="2.5" fill="#78aee8" stroke="#0d1117" stroke-width="2.4" /><rect x="734.0" y="301.0" width="32.1" height="32.1" rx="2.5" fill="#4f78a8" opacity="0.95" /><rect x="724.0" y="291.0" width="32.1" height="32.1" rx="2.5" fill="#78aee8" stroke="#0d1117" stroke-width="2.4" /><rect x="638.0" y="325.0" width="32.1" height="32.1" rx="2.5" fill="#4f78a8" opacity="0.95" /><rect x="628.0" y="315.0" width="32.1" height="32.1" rx="2.5" fill="#78aee8" stroke="#0d1117" stroke-width="2.4" /><rect x="662.0" y="325.0" width="32.1" height="32.1" rx="2.5" fill="#4f78a8" opacity="0.95" /><rect x="652.0" y="315.0" width="32.1" height="32.1" rx="2.5" fill="#78aee8" stroke="#0d1117" stroke-width="2.4" /><rect x="686.0" y="325.0" width="32.1" height="32.1" rx="2.5" fill="#4f78a8" opacity="0.95" /><rect x="676.0" y="315.0" width="32.1" height="32.1" rx="2.5" fill="#78aee8" stroke="#0d1117" stroke-width="2.4" /><rect x="710.0" y="325.0" width="32.1" height="32.1" rx="2.5" fill="#4f78a8" opacity="0.95" /><rect x="700.0" y="315.0" width="32.1" height="32.1" rx="2.5" fill="#78aee8" stroke="#0d1117" stroke-width="2.4" /><rect x="942.0" y="181.0" width="32.1" height="32.1" rx="2.5" fill="#4f78a8" opacity="0.95" /><rect x="932.0" y="171.0" width="32.1" height="32.1" rx="2.5" fill="#78aee8" stroke="#0d1117" stroke-width="2.4" /><rect x="966.0" y="181.0" width="32.1" height="32.1" rx="2.5" fill="#4f78a8" opacity="0.95" /><rect x="956.0" y="171.0" width="32.1" height="32.1" rx="2.5" fill="#78aee8" stroke="#0d1117" stroke-width="2.4" /><rect x="990.0" y="181.0" width="32.1" height="32.1" rx="2.5" fill="#4f78a8" opacity="0.95" /><rect x="980.0" y="171.0" width="32.1" height="32.1" rx="2.5" fill="#78aee8" stroke="#0d1117" stroke-width="2.4" /><rect x="918.0" y="205.0" width="32.1" height="32.1" rx="2.5" fill="#4f78a8" opacity="0.95" /><rect x="908.0" y="195.0" width="32.1" height="32.1" rx="2.5" fill="#78aee8" stroke="#0d1117" stroke-width="2.4" /><rect x="1014.0" y="205.0" width="32.1" height="32.1" rx="2.5" fill="#4f78a8" opacity="0.95" /><rect x="1004.0" y="195.0" width="32.1" height="32.1" rx="2.5" fill="#78aee8" stroke="#0d1117" stroke-width="2.4" /><rect x="918.0" y="229.0" width="32.1" height="32.1" rx="2.5" fill="#4f78a8" opacity="0.95" /><rect x="908.0" y="219.0" width="32.1" height="32.1" rx="2.5" fill="#78aee8" stroke="#0d1117" stroke-width="2.4" /><rect x="1014.0" y="229.0" width="32.1" height="32.1" rx="2.5" fill="#4f78a8" opacity="0.95" /><rect x="1004.0" y="219.0" width="32.1" height="32.1" rx="2.5" fill="#78aee8" stroke="#0d1117" stroke-width="2.4" /><rect x="918.0" y="253.0" width="32.1" height="32.1" rx="2.5" fill="#4f78a8" opacity="0.95" /><rect x="908.0" y="243.0" width="32.1" height="32.1" rx="2.5" fill="#78aee8" stroke="#0d1117" stroke-width="2.4" /><rect x="1014.0" y="253.0" width="32.1" height="32.1" rx="2.5" fill="#4f78a8" opacity="0.95" /><rect x="1004.0" y="243.0" width="32.1" height="32.1" rx="2.5" fill="#78aee8" stroke="#0d1117" stroke-width="2.4" /><rect x="918.0" y="277.0" width="32.1" height="32.1" rx="2.5" fill="#4f78a8" opacity="0.95" /><rect x="908.0" y="267.0" width="32.1" height="32.1" rx="2.5" fill="#78aee8" stroke="#0d1117" stroke-width="2.4" /><rect x="1014.0" y="277.0" width="32.1" height="32.1" rx="2.5" fill="#4f78a8" opacity="0.95" /><rect x="1004.0" y="267.0" width="32.1" height="32.1" rx="2.5" fill="#78aee8" stroke="#0d1117" stroke-width="2.4" /><rect x="918.0" y="301.0" width="32.1" height="32.1" rx="2.5" fill="#4f78a8" opacity="0.95" /><rect x="908.0" y="291.0" width="32.1" height="32.1" rx="2.5" fill="#78aee8" stroke="#0d1117" stroke-width="2.4" /><rect x="1014.0" y="301.0" width="32.1" height="32.1" rx="2.5" fill="#4f78a8" opacity="0.95" /><rect x="1004.0" y="291.0" width="32.1" height="32.1" rx="2.5" fill="#78aee8" stroke="#0d1117" stroke-width="2.4" /><rect x="942.0" y="325.0" width="32.1" height="32.1" rx="2.5" fill="#4f78a8" opacity="0.95" /><rect x="932.0" y="315.0" width="32.1" height="32.1" rx="2.5" fill="#78aee8" stroke="#0d1117" stroke-width="2.4" /><rect x="966.0" y="325.0" width="32.1" height="32.1" rx="2.5" fill="#4f78a8" opacity="0.95" /><rect x="956.0" y="315.0" width="32.1" height="32.1" rx="2.5" fill="#78aee8" stroke="#0d1117" stroke-width="2.4" /><rect x="990.0" y="325.0" width="32.1" height="32.1" rx="2.5" fill="#4f78a8" opacity="0.95" /><rect x="980.0" y="315.0" width="32.1" height="32.1" rx="2.5" fill="#78aee8" stroke="#0d1117" stroke-width="2.4" /><rect x="1064.0" y="181.0" width="32.1" height="32.1" rx="2.5" fill="#4f78a8" opacity="0.95" /><rect x="1054.0" y="171.0" width="32.1" height="32.1" rx="2.5" fill="#78aee8" stroke="#0d1117" stroke-width="2.4" /><rect x="1088.0" y="181.0" width="32.1" height="32.1" rx="2.5" fill="#4f78a8" opacity="0.95" /><rect x="1078.0" y="171.0" width="32.1" height="32.1" rx="2.5" fill="#78aee8" stroke="#0d1117" stroke-width="2.4" /><rect x="1112.0" y="181.0" width="32.1" height="32.1" rx="2.5" fill="#4f78a8" opacity="0.95" /><rect x="1102.0" y="171.0" width="32.1" height="32.1" rx="2.5" fill="#78aee8" stroke="#0d1117" stroke-width="2.4" /><rect x="1136.0" y="181.0" width="32.1" height="32.1" rx="2.5" fill="#4f78a8" opacity="0.95" /><rect x="1126.0" y="171.0" width="32.1" height="32.1" rx="2.5" fill="#78aee8" stroke="#0d1117" stroke-width="2.4" /><rect x="1064.0" y="205.0" width="32.1" height="32.1" rx="2.5" fill="#4f78a8" opacity="0.95" /><rect x="1054.0" y="195.0" width="32.1" height="32.1" rx="2.5" fill="#78aee8" stroke="#0d1117" stroke-width="2.4" /><rect x="1160.0" y="205.0" width="32.1" height="32.1" rx="2.5" fill="#4f78a8" opacity="0.95" /><rect x="1150.0" y="195.0" width="32.1" height="32.1" rx="2.5" fill="#78aee8" stroke="#0d1117" stroke-width="2.4" /><rect x="1064.0" y="229.0" width="32.1" height="32.1" rx="2.5" fill="#4f78a8" opacity="0.95" /><rect x="1054.0" y="219.0" width="32.1" height="32.1" rx="2.5" fill="#78aee8" stroke="#0d1117" stroke-width="2.4" /><rect x="1160.0" y="229.0" width="32.1" height="32.1" rx="2.5" fill="#4f78a8" opacity="0.95" /><rect x="1150.0" y="219.0" width="32.1" height="32.1" rx="2.5" fill="#78aee8" stroke="#0d1117" stroke-width="2.4" /><rect x="1064.0" y="253.0" width="32.1" height="32.1" rx="2.5" fill="#4f78a8" opacity="0.95" /><rect x="1054.0" y="243.0" width="32.1" height="32.1" rx="2.5" fill="#78aee8" stroke="#0d1117" stroke-width="2.4" /><rect x="1088.0" y="253.0" width="32.1" height="32.1" rx="2.5" fill="#4f78a8" opacity="0.95" /><rect x="1078.0" y="243.0" width="32.1" height="32.1" rx="2.5" fill="#78aee8" stroke="#0d1117" stroke-width="2.4" /><rect x="1112.0" y="253.0" width="32.1" height="32.1" rx="2.5" fill="#4f78a8" opacity="0.95" /><rect x="1102.0" y="243.0" width="32.1" height="32.1" rx="2.5" fill="#78aee8" stroke="#0d1117" stroke-width="2.4" /><rect x="1136.0" y="253.0" width="32.1" height="32.1" rx="2.5" fill="#4f78a8" opacity="0.95" /><rect x="1126.0" y="243.0" width="32.1" height="32.1" rx="2.5" fill="#78aee8" stroke="#0d1117" stroke-width="2.4" /><rect x="1064.0" y="277.0" width="32.1" height="32.1" rx="2.5" fill="#4f78a8" opacity="0.95" /><rect x="1054.0" y="267.0" width="32.1" height="32.1" rx="2.5" fill="#78aee8" stroke="#0d1117" stroke-width="2.4" /><rect x="1112.0" y="277.0" width="32.1" height="32.1" rx="2.5" fill="#4f78a8" opacity="0.95" /><rect x="1102.0" y="267.0" width="32.1" height="32.1" rx="2.5" fill="#78aee8" stroke="#0d1117" stroke-width="2.4" /><rect x="1064.0" y="301.0" width="32.1" height="32.1" rx="2.5" fill="#4f78a8" opacity="0.95" /><rect x="1054.0" y="291.0" width="32.1" height="32.1" rx="2.5" fill="#78aee8" stroke="#0d1117" stroke-width="2.4" /><rect x="1136.0" y="301.0" width="32.1" height="32.1" rx="2.5" fill="#4f78a8" opacity="0.95" /><rect x="1126.0" y="291.0" width="32.1" height="32.1" rx="2.5" fill="#78aee8" stroke="#0d1117" stroke-width="2.4" /><rect x="1064.0" y="325.0" width="32.1" height="32.1" rx="2.5" fill="#4f78a8" opacity="0.95" /><rect x="1054.0" y="315.0" width="32.1" height="32.1" rx="2.5" fill="#78aee8" stroke="#0d1117" stroke-width="2.4" /><rect x="1160.0" y="325.0" width="32.1" height="32.1" rx="2.5" fill="#4f78a8" opacity="0.95" /><rect x="1150.0" y="315.0" width="32.1" height="32.1" rx="2.5" fill="#78aee8" stroke="#0d1117" stroke-width="2.4" /><rect x="1344.0" y="181.0" width="32.1" height="32.1" rx="2.5" fill="#4f78a8" opacity="0.95" /><rect x="1334.0" y="171.0" width="32.1" height="32.1" rx="2.5" fill="#78aee8" stroke="#0d1117" stroke-width="2.4" /><rect x="1368.0" y="181.0" width="32.1" height="32.1" rx="2.5" fill="#4f78a8" opacity="0.95" /><rect x="1358.0" y="171.0" width="32.1" height="32.1" rx="2.5" fill="#78aee8" stroke="#0d1117" stroke-width="2.4" /><rect x="1392.0" y="181.0" width="32.1" height="32.1" rx="2.5" fill="#4f78a8" opacity="0.95" /><rect x="1382.0" y="171.0" width="32.1" height="32.1" rx="2.5" fill="#78aee8" stroke="#0d1117" stroke-width="2.4" /><rect x="1416.0" y="181.0" width="32.1" height="32.1" rx="2.5" fill="#4f78a8" opacity="0.95" /><rect x="1406.0" y="171.0" width="32.1" height="32.1" rx="2.5" fill="#78aee8" stroke="#0d1117" stroke-width="2.4" /><rect x="1344.0" y="205.0" width="32.1" height="32.1" rx="2.5" fill="#4f78a8" opacity="0.95" /><rect x="1334.0" y="195.0" width="32.1" height="32.1" rx="2.5" fill="#78aee8" stroke="#0d1117" stroke-width="2.4" /><rect x="1440.0" y="205.0" width="32.1" height="32.1" rx="2.5" fill="#4f78a8" opacity="0.95" /><rect x="1430.0" y="195.0" width="32.1" height="32.1" rx="2.5" fill="#78aee8" stroke="#0d1117" stroke-width="2.4" /><rect x="1344.0" y="229.0" width="32.1" height="32.1" rx="2.5" fill="#4f78a8" opacity="0.95" /><rect x="1334.0" y="219.0" width="32.1" height="32.1" rx="2.5" fill="#78aee8" stroke="#0d1117" stroke-width="2.4" /><rect x="1440.0" y="229.0" width="32.1" height="32.1" rx="2.5" fill="#4f78a8" opacity="0.95" /><rect x="1430.0" y="219.0" width="32.1" height="32.1" rx="2.5" fill="#78aee8" stroke="#0d1117" stroke-width="2.4" /><rect x="1344.0" y="253.0" width="32.1" height="32.1" rx="2.5" fill="#4f78a8" opacity="0.95" /><rect x="1334.0" y="243.0" width="32.1" height="32.1" rx="2.5" fill="#78aee8" stroke="#0d1117" stroke-width="2.4" /><rect x="1440.0" y="253.0" width="32.1" height="32.1" rx="2.5" fill="#4f78a8" opacity="0.95" /><rect x="1430.0" y="243.0" width="32.1" height="32.1" rx="2.5" fill="#78aee8" stroke="#0d1117" stroke-width="2.4" /><rect x="1344.0" y="277.0" width="32.1" height="32.1" rx="2.5" fill="#4f78a8" opacity="0.95" /><rect x="1334.0" y="267.0" width="32.1" height="32.1" rx="2.5" fill="#78aee8" stroke="#0d1117" stroke-width="2.4" /><rect x="1440.0" y="277.0" width="32.1" height="32.1" rx="2.5" fill="#4f78a8" opacity="0.95" /><rect x="1430.0" y="267.0" width="32.1" height="32.1" rx="2.5" fill="#78aee8" stroke="#0d1117" stroke-width="2.4" /><rect x="1344.0" y="301.0" width="32.1" height="32.1" rx="2.5" fill="#4f78a8" opacity="0.95" /><rect x="1334.0" y="291.0" width="32.1" height="32.1" rx="2.5" fill="#78aee8" stroke="#0d1117" stroke-width="2.4" /><rect x="1440.0" y="301.0" width="32.1" height="32.1" rx="2.5" fill="#4f78a8" opacity="0.95" /><rect x="1430.0" y="291.0" width="32.1" height="32.1" rx="2.5" fill="#78aee8" stroke="#0d1117" stroke-width="2.4" /><rect x="1344.0" y="325.0" width="32.1" height="32.1" rx="2.5" fill="#4f78a8" opacity="0.95" /><rect x="1334.0" y="315.0" width="32.1" height="32.1" rx="2.5" fill="#78aee8" stroke="#0d1117" stroke-width="2.4" /><rect x="1368.0" y="325.0" width="32.1" height="32.1" rx="2.5" fill="#4f78a8" opacity="0.95" /><rect x="1358.0" y="315.0" width="32.1" height="32.1" rx="2.5" fill="#78aee8" stroke="#0d1117" stroke-width="2.4" /><rect x="1392.0" y="325.0" width="32.1" height="32.1" rx="2.5" fill="#4f78a8" opacity="0.95" /><rect x="1382.0" y="315.0" width="32.1" height="32.1" rx="2.5" fill="#78aee8" stroke="#0d1117" stroke-width="2.4" /><rect x="1416.0" y="325.0" width="32.1" height="32.1" rx="2.5" fill="#4f78a8" opacity="0.95" /><rect x="1406.0" y="315.0" width="32.1" height="32.1" rx="2.5" fill="#78aee8" stroke="#0d1117" stroke-width="2.4" /><rect x="1490.0" y="181.0" width="32.1" height="32.1" rx="2.5" fill="#4f78a8" opacity="0.95" /><rect x="1480.0" y="171.0" width="32.1" height="32.1" rx="2.5" fill="#78aee8" stroke="#0d1117" stroke-width="2.4" /><rect x="1514.0" y="181.0" width="32.1" height="32.1" rx="2.5" fill="#4f78a8" opacity="0.95" /><rect x="1504.0" y="171.0" width="32.1" height="32.1" rx="2.5" fill="#78aee8" stroke="#0d1117" stroke-width="2.4" /><rect x="1538.0" y="181.0" width="32.1" height="32.1" rx="2.5" fill="#4f78a8" opacity="0.95" /><rect x="1528.0" y="171.0" width="32.1" height="32.1" rx="2.5" fill="#78aee8" stroke="#0d1117" stroke-width="2.4" /><rect x="1562.0" y="181.0" width="32.1" height="32.1" rx="2.5" fill="#4f78a8" opacity="0.95" /><rect x="1552.0" y="171.0" width="32.1" height="32.1" rx="2.5" fill="#78aee8" stroke="#0d1117" stroke-width="2.4" /><rect x="1586.0" y="181.0" width="32.1" height="32.1" rx="2.5" fill="#4f78a8" opacity="0.95" /><rect x="1576.0" y="171.0" width="32.1" height="32.1" rx="2.5" fill="#78aee8" stroke="#0d1117" stroke-width="2.4" /><rect x="1538.0" y="205.0" width="32.1" height="32.1" rx="2.5" fill="#4f78a8" opacity="0.95" /><rect x="1528.0" y="195.0" width="32.1" height="32.1" rx="2.5" fill="#78aee8" stroke="#0d1117" stroke-width="2.4" /><rect x="1538.0" y="229.0" width="32.1" height="32.1" rx="2.5" fill="#4f78a8" opacity="0.95" /><rect x="1528.0" y="219.0" width="32.1" height="32.1" rx="2.5" fill="#78aee8" stroke="#0d1117" stroke-width="2.4" /><rect x="1538.0" y="253.0" width="32.1" height="32.1" rx="2.5" fill="#4f78a8" opacity="0.95" /><rect x="1528.0" y="243.0" width="32.1" height="32.1" rx="2.5" fill="#78aee8" stroke="#0d1117" stroke-width="2.4" /><rect x="1538.0" y="277.0" width="32.1" height="32.1" rx="2.5" fill="#4f78a8" opacity="0.95" /><rect x="1528.0" y="267.0" width="32.1" height="32.1" rx="2.5" fill="#78aee8" stroke="#0d1117" stroke-width="2.4" /><rect x="1538.0" y="301.0" width="32.1" height="32.1" rx="2.5" fill="#4f78a8" opacity="0.95" /><rect x="1528.0" y="291.0" width="32.1" height="32.1" rx="2.5" fill="#78aee8" stroke="#0d1117" stroke-width="2.4" /><rect x="1490.0" y="325.0" width="32.1" height="32.1" rx="2.5" fill="#4f78a8" opacity="0.95" /><rect x="1480.0" y="315.0" width="32.1" height="32.1" rx="2.5" fill="#78aee8" stroke="#0d1117" stroke-width="2.4" /><rect x="1514.0" y="325.0" width="32.1" height="32.1" rx="2.5" fill="#4f78a8" opacity="0.95" /><rect x="1504.0" y="315.0" width="32.1" height="32.1" rx="2.5" fill="#78aee8" stroke="#0d1117" stroke-width="2.4" /><rect x="1538.0" y="325.0" width="32.1" height="32.1" rx="2.5" fill="#4f78a8" opacity="0.95" /><rect x="1528.0" y="315.0" width="32.1" height="32.1" rx="2.5" fill="#78aee8" stroke="#0d1117" stroke-width="2.4" /><rect x="1562.0" y="325.0" width="32.1" height="32.1" rx="2.5" fill="#4f78a8" opacity="0.95" /><rect x="1552.0" y="315.0" width="32.1" height="32.1" rx="2.5" fill="#78aee8" stroke="#0d1117" stroke-width="2.4" /><rect x="1586.0" y="325.0" width="32.1" height="32.1" rx="2.5" fill="#4f78a8" opacity="0.95" /><rect x="1576.0" y="315.0" width="32.1" height="32.1" rx="2.5" fill="#78aee8" stroke="#0d1117" stroke-width="2.4" /><rect x="1636.0" y="181.0" width="32.1" height="32.1" rx="2.5" fill="#4f78a8" opacity="0.95" /><rect x="1626.0" y="171.0" width="32.1" height="32.1" rx="2.5" fill="#78aee8" stroke="#0d1117" stroke-width="2.4" /><rect x="1660.0" y="181.0" width="32.1" height="32.1" rx="2.5" fill="#4f78a8" opacity="0.95" /><rect x="1650.0" y="171.0" width="32.1" height="32.1" rx="2.5" fill="#78aee8" stroke="#0d1117" stroke-width="2.4" /><rect x="1684.0" y="181.0" width="32.1" height="32.1" rx="2.5" fill="#4f78a8" opacity="0.95" /><rect x="1674.0" y="171.0" width="32.1" height="32.1" rx="2.5" fill="#78aee8" stroke="#0d1117" stroke-width="2.4" /><rect x="1708.0" y="181.0" width="32.1" height="32.1" rx="2.5" fill="#4f78a8" opacity="0.95" /><rect x="1698.0" y="171.0" width="32.1" height="32.1" rx="2.5" fill="#78aee8" stroke="#0d1117" stroke-width="2.4" /><rect x="1732.0" y="181.0" width="32.1" height="32.1" rx="2.5" fill="#4f78a8" opacity="0.95" /><rect x="1722.0" y="171.0" width="32.1" height="32.1" rx="2.5" fill="#78aee8" stroke="#0d1117" stroke-width="2.4" /><rect x="1636.0" y="205.0" width="32.1" height="32.1" rx="2.5" fill="#4f78a8" opacity="0.95" /><rect x="1626.0" y="195.0" width="32.1" height="32.1" rx="2.5" fill="#78aee8" stroke="#0d1117" stroke-width="2.4" /><rect x="1636.0" y="229.0" width="32.1" height="32.1" rx="2.5" fill="#4f78a8" opacity="0.95" /><rect x="1626.0" y="219.0" width="32.1" height="32.1" rx="2.5" fill="#78aee8" stroke="#0d1117" stroke-width="2.4" /><rect x="1636.0" y="253.0" width="32.1" height="32.1" rx="2.5" fill="#4f78a8" opacity="0.95" /><rect x="1626.0" y="243.0" width="32.1" height="32.1" rx="2.5" fill="#78aee8" stroke="#0d1117" stroke-width="2.4" /><rect x="1660.0" y="253.0" width="32.1" height="32.1" rx="2.5" fill="#4f78a8" opacity="0.95" /><rect x="1650.0" y="243.0" width="32.1" height="32.1" rx="2.5" fill="#78aee8" stroke="#0d1117" stroke-width="2.4" /><rect x="1684.0" y="253.0" width="32.1" height="32.1" rx="2.5" fill="#4f78a8" opacity="0.95" /><rect x="1674.0" y="243.0" width="32.1" height="32.1" rx="2.5" fill="#78aee8" stroke="#0d1117" stroke-width="2.4" /><rect x="1708.0" y="253.0" width="32.1" height="32.1" rx="2.5" fill="#4f78a8" opacity="0.95" /><rect x="1698.0" y="243.0" width="32.1" height="32.1" rx="2.5" fill="#78aee8" stroke="#0d1117" stroke-width="2.4" /><rect x="1636.0" y="277.0" width="32.1" height="32.1" rx="2.5" fill="#4f78a8" opacity="0.95" /><rect x="1626.0" y="267.0" width="32.1" height="32.1" rx="2.5" fill="#78aee8" stroke="#0d1117" stroke-width="2.4" /><rect x="1636.0" y="301.0" width="32.1" height="32.1" rx="2.5" fill="#4f78a8" opacity="0.95" /><rect x="1626.0" y="291.0" width="32.1" height="32.1" rx="2.5" fill="#78aee8" stroke="#0d1117" stroke-width="2.4" /><rect x="1636.0" y="325.0" width="32.1" height="32.1" rx="2.5" fill="#4f78a8" opacity="0.95" /><rect x="1626.0" y="315.0" width="32.1" height="32.1" rx="2.5" fill="#78aee8" stroke="#0d1117" stroke-width="2.4" /><rect x="1660.0" y="325.0" width="32.1" height="32.1" rx="2.5" fill="#4f78a8" opacity="0.95" /><rect x="1650.0" y="315.0" width="32.1" height="32.1" rx="2.5" fill="#78aee8" stroke="#0d1117" stroke-width="2.4" /><rect x="1684.0" y="325.0" width="32.1" height="32.1" rx="2.5" fill="#4f78a8" opacity="0.95" /><rect x="1674.0" y="315.0" width="32.1" height="32.1" rx="2.5" fill="#78aee8" stroke="#0d1117" stroke-width="2.4" /><rect x="1708.0" y="325.0" width="32.1" height="32.1" rx="2.5" fill="#4f78a8" opacity="0.95" /><rect x="1698.0" y="315.0" width="32.1" height="32.1" rx="2.5" fill="#78aee8" stroke="#0d1117" stroke-width="2.4" /><rect x="1732.0" y="325.0" width="32.1" height="32.1" rx="2.5" fill="#4f78a8" opacity="0.95" /><rect x="1722.0" y="315.0" width="32.1" height="32.1" rx="2.5" fill="#78aee8" stroke="#0d1117" stroke-width="2.4" />
</svg>
